<svg width="35" height="40" viewBox="0 0 35 40" fill="none" xmlns="http://www.w3.org/2000/svg">
<path d="M16.9999 23L11.8037 14L22.196 14L16.9999 23Z" fill="#74CDE9"/>
<path fill-rule="evenodd" clip-rule="evenodd" d="M17.2637 16.8459C15.7108 18.7629 13.2589 20 10.5 20C5.80558 20 2 16.4183 2 12C2 7.58172 5.80558 4 10.5 4C13.4816 4 16.1046 5.44485 17.6218 7.6312C19.2491 5.43569 21.947 4 25 4C29.9706 4 34 7.80558 34 12.5C34 17.1944 29.9706 21 25 21C21.7108 21 18.8338 19.3336 17.2637 16.8459Z" fill="#5382DE"/>
<path d="M1.19618 5.51361L1.19618 0L4.76158 2.05848C6.0246 1.38299 7.46757 1 9 1C12.4829 1 15.5038 2.97844 17 5.8728C18.4962 2.97844 21.5171 1 25 1C26.8179 1 28.51 1.539 29.9251 2.46592L34.1962 0L34 10C34 10.4365 33.9689 10.8658 33.9089 11.2857C33.285 7.1665 29.534 4 25 4C21.947 4 19.2491 5.43569 17.6218 7.6312C16.1046 5.44485 13.4816 4 10.5 4C5.80558 4 2 7.58172 2 12C2 14.8535 3.58732 17.358 5.97626 18.7742C5.34508 20.245 5 21.8374 5 23.5C5 30.9558 11.9396 37 20.5 37C23.1377 37 25.6215 36.4262 27.7958 35.414C25.0677 38.2414 21.2392 40 17 40C8.71573 40 2 33.2843 2 25C2 22.2646 2.73222 19.7001 4.01135 17.492C1.59301 15.8785 0 13.1253 0 10C0 8.36632 0.435277 6.83431 1.19618 5.51361Z" fill="white"/>
<path d="M13.7434 15.2694C11.9374 15.6349 9.95382 14.5188 9.06262 12.516C8.17142 10.5131 8.67025 8.2925 10.1508 7.19563C9.87555 7.25955 9.60235 7.35044 9.33456 7.4696C7.06392 8.47996 6.04226 11.1397 7.05262 13.4104C8.06298 15.681 10.7228 16.7027 12.9934 15.6923C13.2612 15.5732 13.5116 15.4311 13.7434 15.2694Z" fill="white"/>
<path d="M29.4103 14.4508C27.8555 15.4397 25.6037 15.1091 24.0535 13.5589C22.5034 12.0088 22.1728 9.757 23.1617 8.20218C22.9276 8.36055 22.7052 8.54337 22.4979 8.75062C20.7406 10.508 20.7406 13.3572 22.4979 15.1146C24.2553 16.8719 27.1045 16.8719 28.8619 15.1146C29.0691 14.9073 29.2519 14.6849 29.4103 14.4508Z" fill="white"/>
</svg>
