<svg width="55" height="55" viewBox="0 0 55 55" fill="none" xmlns="http://www.w3.org/2000/svg">
<path d="M29.4042 2.31157C29.7866 1.47368 30.4999 1.23735 31.0928 1.21157C31.9952 1.1686 32.9405 1.79165 33.83 2.52641C34.4616 3.2397 35.2178 3.7897 36.0944 4.17641C36.7003 4.39124 37.3018 4.43421 37.912 4.40413C38.7714 4.36116 39.6436 4.17212 40.5073 4.12915L40.5546 4.12485L40.9456 4.09048C41.9339 4.04321 42.8663 4.27524 43.7514 4.78655C44.5635 5.52561 44.9202 6.44514 44.8085 7.55374C44.6194 8.46897 44.7827 9.30686 45.294 10.0674C46.1749 10.6862 47.0987 11.2276 48.0698 11.6873C49.0753 12.2373 49.7069 13.0666 49.9819 14.1709C50.0807 15.3397 49.5393 16.0873 48.3706 16.4096C46.8495 16.792 44.8042 16.792 43.0811 18.1241C40.5632 20.2252 39.7725 22.3436 38.6768 22.6658C38.1397 22.0557 34.7882 19.4647 29.1678 18.2229C28.1624 14.7553 27.5522 6.38499 29.4042 2.31157Z" fill="#FCC21B"/>
<path d="M35.0752 17.484C36.0635 15.5074 38.8779 12.0313 39.5525 12.7188C40.2186 13.4664 38.6846 17.3508 37.6061 19.2543C37.2236 18.8504 35.9904 18.0039 35.4533 17.8621" fill="#D19B15"/>
<path d="M40.0471 23.813C39.467 23.813 38.8998 23.5165 38.5776 22.9837C35.6213 18.1196 28.9268 18.631 28.8623 18.6396C27.917 18.7169 27.0834 18.0208 27.0018 17.0798C26.9618 16.6272 27.1025 16.1771 27.3931 15.8277C27.6837 15.4784 28.1006 15.2581 28.553 15.215C28.9139 15.1806 37.4346 14.4802 41.5166 21.2048C42.0108 22.0169 41.7487 23.0739 40.9408 23.5638C40.6573 23.7314 40.3522 23.813 40.0471 23.813Z" fill="#C70707"/>
<path d="M41.276 52.452C33.9154 54.2653 23.6846 54.1364 16.3756 52.6926C9.53497 51.3391 4.29707 47.3043 4.89864 39.3637C5.50879 31.3286 10.8326 23.7618 18.1545 20.4274C25.24 17.2004 34.749 15.6278 39.7592 22.9497C41.0053 24.7715 43.3857 28.8149 43.4975 30.8C43.5061 30.959 43.5147 31.1008 43.549 31.2383C43.5576 31.7368 43.7596 32.2395 44.2494 32.609C47.399 34.9938 49.6936 38.1563 50.1147 42.4918C50.6131 47.661 45.7232 51.3563 41.276 52.452Z" fill="#FCC21B"/>
<path d="M32.9185 33.7035L27.3795 32.8998L24.9035 27.8878C24.8359 27.7505 24.7246 27.6394 24.5872 27.5719C24.2425 27.402 23.8237 27.5436 23.6513 27.8878L21.1753 32.8998L15.6363 33.7035C15.4836 33.7253 15.344 33.7972 15.2371 33.9061C15.1079 34.0387 15.0367 34.2171 15.0391 34.4022C15.0416 34.5872 15.1175 34.7637 15.2502 34.8928L19.2577 38.794L18.3109 44.3025C18.2887 44.431 18.3029 44.5625 18.3519 44.6832C18.4009 44.8035 18.4827 44.9079 18.5881 44.9844C18.6935 45.0609 18.8182 45.106 18.9481 45.1155C19.0781 45.1245 19.208 45.0974 19.3232 45.0368L24.2774 42.4359L29.2317 45.0368C29.3669 45.1086 29.524 45.1327 29.6745 45.1065C30.0541 45.0411 30.3094 44.6815 30.2439 44.3025L29.2971 38.794L33.3046 34.8928C33.4137 34.7861 33.4857 34.6467 33.5075 34.4942C33.5664 34.113 33.3002 33.7602 32.9185 33.7035Z" fill="black"/>
</svg>
