<svg width="19" height="19" viewBox="0 0 19 19" fill="none" xmlns="http://www.w3.org/2000/svg">
<g clip-path="url(#close-button-clip)">
<path d="M18.4372 0.561386C17.687 -0.189082 16.4711 -0.189082 15.7209 0.561386L9.49894 6.78209L3.27701 0.561386C2.52682 -0.189082 1.31087 -0.189082 0.560687 0.561386C-0.1895 1.31185 -0.1895 2.52825 0.560687 3.27872L6.78262 9.49942L0.560687 15.7201C-0.1895 16.4706 -0.1895 17.687 0.560687 18.4375C0.937559 18.8145 1.4282 18.9994 1.91885 18.9994C2.40949 18.9994 2.90013 18.8109 3.27701 18.4375L9.49894 12.2132L15.7209 18.4375C16.0977 18.8109 16.5884 18.9994 17.079 18.9994C17.5697 18.9994 18.0603 18.8109 18.4372 18.4375C19.1874 17.687 19.1874 16.4706 18.4372 15.7201L12.2153 9.49942L18.4372 3.27872C19.1838 2.52825 19.1838 1.31185 18.4372 0.561386Z" fill="#ED4B92"/>
</g>
<defs>
<clipPath id="close-button-clip">
<rect width="19" height="19" fill="white"/>
</clipPath>
</defs>
</svg>
