<svg width="17" height="25" viewBox="0 0 17 25" fill="none" xmlns="http://www.w3.org/2000/svg">
<g clip-path="url(#clip0)">
<path d="M8.5 -0.000976562C3.83481 -0.000976562 0 3.56633 0 8.65287C0 10.467 0.434808 11.7298 1.24558 13.1304L7.92788 24.6689C8.10115 24.9798 8.5 25.092 8.81711 24.9189C8.925 24.8612 9.01327 24.7747 9.07211 24.6689L15.7544 13.1304C16.5652 11.733 17 10.4702 17 8.65287C17 3.56633 13.1652 -0.000976562 8.5 -0.000976562ZM8.5 4.4862C10.6675 4.4862 12.4231 6.20736 12.4231 8.33236C12.4231 10.4574 10.6675 12.1785 8.5 12.1785C6.3325 12.1785 4.57692 10.4574 4.57692 8.33236C4.57692 6.20736 6.3325 4.4862 8.5 4.4862Z" fill="#5382DE"/>
</g>
<defs>
<clipPath id="clip0">
<rect width="17" height="25" fill="white"/>
</clipPath>
</defs>
</svg>
