<svg width="31" height="31" viewBox="0 0 31 31" fill="none" xmlns="http://www.w3.org/2000/svg">
<g clip-path="url(#search-button-clip0)">
<path d="M30.5668 28.3857L22.2135 20.0324C26.4211 14.6182 25.4465 6.8218 20.0324 2.61421C14.6182 -1.59337 6.8218 -0.61882 2.61421 4.79535C-1.59337 10.2095 -0.61882 18.0214 4.79535 22.229C9.28138 25.7095 15.5463 25.7095 20.0324 22.229L28.3857 30.5823C29.0044 31.1701 29.979 31.1546 30.5668 30.5513C31.1546 29.9326 31.1546 28.989 30.5668 28.3857ZM3.18657 12.468C3.18657 7.34775 7.34775 3.18657 12.468 3.18657C17.5883 3.18657 21.7494 7.34775 21.7494 12.468C21.7494 17.5883 17.5883 21.7494 12.468 21.7494C7.33228 21.734 3.18657 17.5883 3.18657 12.468Z" fill="#5382DE"/>
</g>
<defs>
<clipPath id="search-button-clip0">
<rect width="31" height="31" fill="white"/>
</clipPath>
</defs>
</svg>
